Genre:Horror | Mystery | Thriller
Language:English
IMDb:http://www.imdb.com/title/tt1255916/
Source:DVD Thanks!

Format : AVI
Format/Info : Audio Video Interleave
File size : 968 MiB
Duration : 1h 27mn
Overall bit rate : 1 542 Kbps

Video
ID : 0
Format : MPEG-4 Visual
Format profile : Advanced Simple@L5
Format settings, BVOP : Yes
Format settings, QPel : No
Format settings, GMC : No warppoints
Format settings, Matrix : Default (H.263)
Codec ID : XVID
Codec ID/Hint : XviD
Duration : 1h 27mn
Bit rate : 1 085 Kbps
Width : 640 pixels
Height : 360 pixels
Display aspect ratio : 16:9
Frame rate : 23.976 fps
Color space : YUV
Chroma subsampling : 4:2:0
Bit depth : 8 bits
Scan type : Progressive
Bits/(Pixel*Frame) : 0.196
Stream size : 681 MiB (70%)
Writing library : XviD 1.2.1 (UTC 2008-12-04)

Audio
ID : 1
Format : AC-3
Format/Info : Audio Coding 3
Mode extension : CM (complete main)
Codec ID : 2000
Duration : 1h 27mn
Bit rate mode : Constant
Bit rate : 448 Kbps
Channel(s) : 6 channels
Channel positions : Front: L C R, Side: L R, LFE
Sampling rate : 48.0 KHz
Bit depth : 16 bits
Stream size : 281 MiB (29%)
Alignment : Aligned on interleaves
Interleave, duration : 42 ms (1.00 video frame)
Interleave, preload duration : 512 ms


Plot:
While attending a bachelor party in Las Vegas, four friends are enticed by two sexy escorts to join them at a private party way off the Strip.

Screens
 
http://img820.imageshack.us/img820/3545/vlcsnap00001sl.png
 
http://img249.imageshack.us/img249/3213/vlcsnap00002fo.png
 
http://img803.imageshack.us/img803/7007/vlcsnap00003rr.png
 
http://img641.imageshack.us/img641/7201/vlcsnap00004n.png